<?xml version="1.0" encoding="UTF-8"?>
<svg xmlns="http://www.w3.org/2000/svg" width="181" height="39" viewBox="0 0 181 39" fill="none">
  <path d="M36.4881 17.4773C36.4881 17.4773 37.5567 14.1492 35.7858 9.96626C38.3506 13.8439 38.8696 18.8818 36.7934 23.3701C36.7527 23.4515 36.7018 23.5431 36.6407 23.6449C36.6 23.7466 36.5593 23.8382 36.5186 23.9197C35.908 25.0494 35.2057 26.0569 34.3813 26.9424C34.6561 25.5684 34.7172 24.1639 34.5645 22.79C34.3203 20.5305 32.4578 14.4546 26.5955 11.554C25.4353 10.9738 23.7865 10.7296 22.2904 10.4548L20.7027 8.95869C31.0838 6.76034 36.4881 17.4773 36.4881 17.4773Z" fill="#49BC99"></path>
  <path d="M30.2585 5.60021C30.2585 5.60021 28.6708 2.48589 24.4573 0.776062C29.0067 1.69204 32.9454 4.9285 34.6552 9.53892C34.6756 9.6407 34.7061 9.74247 34.7468 9.84425C34.7875 9.94602 34.818 10.0478 34.8384 10.1496C35.2353 11.3403 35.4185 12.5922 35.4796 13.783C34.6857 12.6227 33.7392 11.5846 32.6706 10.7297C30.9302 9.29466 25.2817 6.30246 19.1141 8.37868C17.8317 8.80614 16.5188 9.78318 15.267 10.6686L13.0992 10.7297C18.8698 1.8447 30.2585 5.60021 30.2585 5.60021Z" fill="#39BAD1"></path>
  <path d="M17.4663 1.60031C17.4663 1.60031 14.1383 0.501139 9.95529 2.27203C13.8329 -0.292708 18.9013 -0.781229 23.3591 1.29499C23.4609 1.3357 23.5627 1.37641 23.6644 1.41712C23.7459 1.47818 23.8375 1.52907 23.9392 1.56978C25.0689 2.1499 26.0765 2.88268 26.962 3.70706C25.5575 3.43227 24.1835 3.3712 22.8095 3.52387C20.5501 3.7376 14.4741 5.60008 11.543 11.4623C10.9629 12.6531 10.7186 14.2713 10.4743 15.798L8.97825 17.3551C6.7799 7.00459 17.4663 1.60031 17.4663 1.60031Z" fill="#2BACC0"></path>
  <path d="M5.58906 7.79871C5.58906 7.79871 2.47473 9.41694 0.764908 13.5999C1.71142 9.05055 4.91734 5.11184 9.5583 3.43255C9.66008 3.39184 9.76185 3.35113 9.86363 3.31042C9.94505 3.29007 10.0366 3.25953 10.1384 3.21882C11.3597 2.85243 12.581 2.6387 13.8023 2.60817C12.6116 3.37148 11.604 4.318 10.7185 5.38664C9.28351 7.15753 6.32184 12.7755 8.39806 18.9736C8.82552 20.2255 9.80256 21.5384 10.688 22.7902L10.7491 24.958C1.86408 19.1874 5.58906 7.79871 5.58906 7.79871Z" fill="#239AA9"></path>
  <path d="M1.58868 20.5918C1.58868 20.5918 0.520033 23.9199 2.29092 28.1029C-0.273814 24.2252 -0.792869 19.1873 1.28335 14.699C1.32406 14.6176 1.37495 14.526 1.43601 14.4242C1.47672 14.3225 1.51743 14.2309 1.55814 14.1495C2.16879 13.0197 2.87104 12.0122 3.69542 11.1267C3.42063 12.5007 3.35957 13.9052 3.51223 15.2792C3.75649 17.5386 5.61898 23.6146 11.4812 26.5152C12.6415 27.0953 14.2902 27.3395 15.7863 27.6143L17.374 29.1104C6.99295 31.3088 1.58868 20.5918 1.58868 20.5918Z" fill="#34849F"></path>
  <path d="M7.8174 32.4688C7.8174 32.4688 9.4051 35.5832 13.6186 37.293C9.06924 36.377 5.13054 33.1405 3.42071 28.5301C3.40035 28.4283 3.36982 28.3266 3.32911 28.2248C3.2884 28.123 3.25787 28.0212 3.23751 27.9195C2.84059 26.7287 2.65739 25.4769 2.59633 24.2861C3.39018 25.4463 4.33669 26.4844 5.40533 27.3393C7.17622 28.7744 12.7942 31.7666 18.9618 29.6904C20.2442 29.2629 21.5571 28.2859 22.8089 27.4004L24.9767 27.3393C19.2061 36.2243 7.8174 32.4688 7.8174 32.4688Z" fill="#419A48"></path>
  <path d="M20.6096 36.4685C20.6096 36.4685 23.9376 37.5677 28.1206 35.7968C24.243 38.3615 19.1746 38.85 14.7168 36.7738C14.615 36.7331 14.5132 36.6924 14.4115 36.6517C14.3301 36.5906 14.2385 36.5397 14.1367 36.499C13.007 35.9189 11.9994 35.1861 11.114 34.3617C12.5185 34.6365 13.8924 34.6976 15.2664 34.5449C17.5258 34.3312 23.6018 32.4687 26.5329 26.6064C27.113 25.4157 27.3573 23.7974 27.6016 22.2708L29.0977 20.7137C31.296 31.0642 20.6096 36.4685 20.6096 36.4685Z" fill="#61AE46"></path>
  <path d="M32.4882 30.2706C32.4882 30.2706 35.6025 28.6524 37.3124 24.4694C36.3659 29.0188 33.1599 32.9575 28.5495 34.6368C28.4274 34.6775 28.3154 34.7182 28.2137 34.7589C28.1322 34.7792 28.0406 34.8098 27.9389 34.8505C26.7176 35.2169 25.4963 35.4306 24.2749 35.4611C25.4657 34.6978 26.4733 33.7513 27.3587 32.6827C28.7938 30.9118 31.7554 25.2938 29.6792 19.0957C29.2518 17.8438 28.2747 16.5309 27.3893 15.2791L27.3282 13.1113C36.2132 18.8819 32.4882 30.2706 32.4882 30.2706Z" fill="#81C241"></path>
  <path d="M47.7804 10.133C47.7804 13.0031 48.8185 14.8961 51.5054 14.8961C52.7572 14.8961 53.5511 14.774 54.6197 14.5297L54.8945 15.8426C53.5816 16.1479 53.1236 16.209 51.0169 16.209C48.5437 16.209 46.2538 14.6824 46.2538 10.1025C46.2538 7.72094 46.895 4.30128 51.139 4.30128C53.0625 4.30128 54.0701 4.63714 54.6502 4.78981L54.3449 6.07218C53.9785 5.95005 52.7877 5.61419 51.5664 5.61419C49.0933 5.61419 47.7804 7.04922 47.7804 10.133Z" fill="#65534E"></path>
  <path d="M56.2691 3.96553H57.7042V13.5222C57.7042 14.6825 57.8874 14.9267 58.6202 14.9267C58.9866 14.9267 60.0247 14.7435 60.3911 14.6519L60.7269 15.9343C59.9941 16.0564 59.2003 16.2091 58.498 16.2091C57.2462 16.2091 56.2691 15.7511 56.2691 14.1329V3.96553Z" fill="#65534E"></path>
  <path d="M62.7413 5.91962C62.039 5.91962 61.8559 5.46163 61.8559 4.94257C61.8559 4.42352 62.039 3.96553 62.7413 3.96553C63.4741 3.96553 63.6573 4.42352 63.6573 4.94257C63.6573 5.46163 63.5351 5.91962 62.7413 5.91962ZM63.4435 7.41571V15.9343H62.0085V7.41571H63.4435Z" fill="#65534E"></path>
  <path d="M77.9473 15.9343H76.5122V10.6216C76.5122 9.61402 76.0848 8.42325 74.6497 8.42325C73.6422 8.42325 72.8178 8.78965 72.2682 9.1255C72.4209 9.55296 72.5125 10.1636 72.5125 10.53V15.9343H71.0774V10.53C71.0774 9.06444 70.4057 8.42325 69.0012 8.42325C68.4822 8.42325 67.7799 8.45379 67.0471 8.60645V15.9343H65.6121V7.41568C66.7113 7.23248 67.8206 7.14088 68.9401 7.14088C69.734 7.14088 70.7416 7.26301 71.5659 7.96526C72.6957 7.32408 73.7032 7.14088 74.6192 7.14088C76.6344 7.14088 77.9473 8.33166 77.9473 10.5605V15.9343Z" fill="#65534E"></path>
  <path fill-rule="evenodd" clip-rule="evenodd" d="M84.1446 10.4689C84.6331 10.4689 85.1216 10.4995 85.6407 10.53V10.4079C85.6407 8.78964 84.7247 8.42325 83.1981 8.42325C82.4348 8.42325 81.7936 8.42325 80.5112 8.72858L80.2059 7.44621C81.4577 7.20195 82.3126 7.14088 83.2897 7.14088C85.2438 7.14088 87.0757 7.78207 87.0757 10.6216V15.9343C85.7323 16.1175 84.5619 16.2091 83.5645 16.2091C80.786 16.2091 79.412 15.4458 79.412 13.339C79.412 11.1407 81.0608 10.4689 84.1446 10.4689ZM85.6407 11.8124C85.1522 11.8124 84.6331 11.7513 83.9309 11.7513C81.9157 11.7513 80.8471 12.1177 80.8471 13.339C80.8471 14.4687 81.5493 14.9267 83.5645 14.9267C84.1446 14.9267 84.8163 14.8656 85.6407 14.8046V11.8124Z" fill="#65534E"></path>
  <path d="M89.0603 4.5764H90.4954V7.41593H93.3349V8.6983H90.4954V13.5225C90.4954 14.6827 90.6786 14.927 91.4113 14.927C91.7777 14.927 92.6021 14.8048 93.2128 14.6827L93.5486 15.9345C92.8158 16.0872 92.022 16.2093 91.3197 16.2093C90.0679 16.2093 89.0603 15.7513 89.0603 14.1331V4.5764Z" fill="#65534E"></path>
  <path fill-rule="evenodd" clip-rule="evenodd" d="M95.962 12.3314C96.1757 14.4687 97.2749 14.9267 98.9237 14.9267C100.176 14.9267 100.939 14.8046 101.916 14.6214L102.221 15.9037C101.336 16.0564 100.023 16.2091 98.8015 16.2091C95.8093 16.2091 94.4964 14.8656 94.4964 11.6597C94.4964 9.09497 95.443 7.14088 98.5268 7.14088C100.939 7.14088 102.557 8.42325 102.557 11.6597C102.557 11.8124 102.557 11.9956 102.557 12.3314H95.962ZM101.122 11.0491C101.122 9.2171 100.053 8.42325 98.5268 8.42325C97.1833 8.42325 95.962 9.2171 95.962 11.0491H101.122Z" fill="#65534E"></path>
  <path fill-rule="evenodd" clip-rule="evenodd" d="M112.876 10.4689C113.334 10.4689 113.823 10.4995 114.342 10.53V10.4079C114.342 8.78964 113.456 8.42325 111.93 8.42325C111.166 8.42325 110.525 8.42325 109.243 8.72858L108.937 7.44621C110.159 7.20195 111.044 7.14088 111.991 7.14088C113.945 7.14088 115.807 7.78207 115.807 10.6216V15.9343C114.443 16.1175 113.263 16.2091 112.265 16.2091C109.518 16.2091 108.144 15.4458 108.144 13.339C108.144 11.1407 109.792 10.4689 112.876 10.4689ZM114.342 11.8124C113.853 11.8124 113.334 11.7513 112.662 11.7513C110.617 11.7513 109.579 12.1177 109.579 13.339C109.579 14.4687 110.281 14.9267 112.265 14.9267C112.846 14.9267 113.548 14.8656 114.342 14.8046V11.8124Z" fill="#65534E"></path>
  <path d="M119.228 15.9343H117.793V7.41568C119.197 7.20195 120.388 7.14088 121.548 7.14088C123.258 7.14088 125.151 7.69047 125.151 10.6521V15.9343H123.716V10.8048C123.716 9.18657 123.228 8.42325 121.64 8.42325C121.029 8.42325 119.961 8.48432 119.228 8.60645V15.9343Z" fill="#65534E"></path>
  <path fill-rule="evenodd" clip-rule="evenodd" d="M130.952 7.14092C131.593 7.14092 132.295 7.23252 132.998 7.41571V3.96553H134.433V15.9343C133.303 16.1175 132.295 16.2091 131.41 16.2091C128.387 16.2091 126.769 15.0489 126.769 11.6292C126.769 8.42329 128.509 7.14092 130.952 7.14092ZM132.998 8.60649C132.326 8.48435 131.685 8.42329 131.166 8.42329C129.09 8.42329 128.235 9.40033 128.235 11.5681C128.235 14.194 129.364 14.9267 131.471 14.9267C131.929 14.9267 132.448 14.8962 132.998 14.8351V8.60649Z" fill="#65534E"></path>
  <path d="M53.7342 34.5231H46.2537V23.165H47.7498V33.2408H53.7342V34.5231Z" fill="#65534E"></path>
  <path fill-rule="evenodd" clip-rule="evenodd" d="M59.5652 29.0575C60.0232 29.0575 60.5117 29.0881 61.0308 29.1186V28.9965C61.0308 27.3782 60.1453 27.0118 58.5881 27.0118C57.8248 27.0118 57.1837 27.0118 55.9013 27.3172L55.6265 26.0348C56.8478 25.7905 57.7332 25.7295 58.6797 25.7295C60.6338 25.7295 62.4658 26.3707 62.4658 29.2102V34.5229C61.1224 34.7061 59.9519 34.7977 58.9545 34.7977C56.2066 34.7977 54.8326 34.0343 54.8326 31.9276C54.8326 29.7292 56.4814 29.0575 59.5652 29.0575ZM61.0308 30.401C60.5422 30.401 60.0232 30.3399 59.3209 30.3399C57.3058 30.3399 56.2677 30.7063 56.2677 31.9276C56.2677 33.0573 56.9699 33.5153 58.9545 33.5153C59.5347 33.5153 60.2369 33.4542 61.0308 33.3932V30.401Z" fill="#65534E"></path>
  <path d="M65.9164 34.5229H64.4814V26.0043C65.8859 25.7905 67.0767 25.7295 68.2064 25.7295C69.9467 25.7295 71.8397 26.2791 71.8397 29.2407V34.5229H70.4047V29.3934C70.4047 27.7752 69.9162 27.0118 68.3285 27.0118C67.7178 27.0118 66.6492 27.0729 65.9164 27.195V34.5229Z" fill="#65534E"></path>
  <path fill-rule="evenodd" clip-rule="evenodd" d="M77.6101 25.7295C78.2513 25.7295 78.9535 25.8211 79.6863 26.0043V22.5541H81.1213V34.5229C79.9916 34.7061 78.9841 34.7977 78.0986 34.7977C75.0454 34.7977 73.4577 33.6375 73.4577 30.2178C73.4577 27.0119 75.198 25.7295 77.6101 25.7295ZM79.6863 27.1951C78.9841 27.073 78.3734 27.0119 77.8544 27.0119C75.7781 27.0119 74.8927 27.9889 74.8927 30.1568C74.8927 32.7826 76.0529 33.5153 78.1597 33.5153C78.6177 33.5153 79.1367 33.4848 79.6863 33.4237V27.1951Z" fill="#65534E"></path>
  <path d="M95.778 23.165H97.2741V28.8746C97.2741 31.9889 96.6329 34.7979 92.5415 34.7979C88.4502 34.7979 87.7479 31.9889 87.7479 28.8746V23.165H89.244V28.8746C89.244 31.6836 89.702 33.485 92.5415 33.485C95.3505 33.485 95.778 31.6836 95.778 28.8746V23.165Z" fill="#65534E"></path>
  <path d="M98.9222 33.21C99.5939 33.3321 100.724 33.5153 101.792 33.5153C103.044 33.5153 104.174 33.271 104.174 32.3245C104.174 31.2253 103.349 31.0116 102.281 30.8284C100.876 30.5231 98.9222 30.2178 98.9222 28.2331C98.9222 26.4623 100.388 25.7295 102.281 25.7295C103.136 25.7295 104.388 25.8821 105.151 26.0653L105.059 27.3477C104.113 27.134 103.166 27.0118 102.403 27.0118C101.212 27.0118 100.388 27.3172 100.388 28.2331C100.388 29.2713 101.884 29.4545 102.891 29.5766C104.479 29.7903 105.609 30.6147 105.609 32.2635C105.609 34.4313 103.716 34.7977 102.006 34.7977C101.029 34.7977 99.4718 34.645 98.7085 34.4923L98.9222 33.21Z" fill="#65534E"></path>
  <path fill-rule="evenodd" clip-rule="evenodd" d="M108.295 30.92C108.509 33.0573 109.608 33.5153 111.256 33.5153C112.508 33.5153 113.272 33.3932 114.249 33.21L114.554 34.4923C113.669 34.645 112.356 34.7977 111.134 34.7977C108.142 34.7977 106.829 33.4542 106.829 30.2483C106.829 27.6836 107.776 25.7295 110.86 25.7295C113.272 25.7295 114.89 27.0118 114.89 30.2483C114.89 30.401 114.89 30.5842 114.89 30.92H108.295ZM113.455 29.6377C113.455 27.8057 112.386 27.0118 110.86 27.0118C109.516 27.0118 108.295 27.8057 108.295 29.6377H113.455Z" fill="#65534E"></path>
  <path fill-rule="evenodd" clip-rule="evenodd" d="M127.714 32.05H122.309L121.485 34.5231H119.989L123.744 23.165H126.279L130.004 34.5231H128.507L127.714 32.05ZM122.737 30.7676H127.317L125.027 23.8367L122.737 30.7676Z" fill="#65534E"></path>
  <path d="M131.195 22.5541H132.661V32.1108C132.661 33.2711 132.844 33.5153 133.577 33.5153C133.913 33.5153 134.951 33.3321 135.348 33.2405L135.684 34.4924C134.92 34.645 134.157 34.7977 133.455 34.7977C132.203 34.7977 131.195 34.3397 131.195 32.7215V22.5541Z" fill="#65534E"></path>
  <path d="M136.753 22.5541H138.218V32.1108C138.218 33.2711 138.402 33.5153 139.134 33.5153C139.47 33.5153 140.508 33.3321 140.905 33.2405L141.241 34.4924C140.478 34.645 139.714 34.7977 139.012 34.7977C137.76 34.7977 136.753 34.3397 136.753 32.7215V22.5541Z" fill="#65534E"></path>
  <path d="M143.255 24.5082C142.523 24.5082 142.339 24.0502 142.339 23.5312C142.339 23.0121 142.523 22.5541 143.255 22.5541C143.988 22.5541 144.171 23.0121 144.171 23.5312C144.171 24.0502 144.049 24.5082 143.255 24.5082ZM143.958 26.0043V34.5229H142.523V26.0043H143.958Z" fill="#65534E"></path>
  <path fill-rule="evenodd" clip-rule="evenodd" d="M150.278 29.0575C150.767 29.0575 151.255 29.0881 151.774 29.1186V28.9965C151.774 27.3782 150.858 27.0118 149.332 27.0118C148.568 27.0118 147.927 27.0118 146.645 27.3172L146.339 26.0348C147.591 25.7905 148.477 25.7295 149.423 25.7295C151.377 25.7295 153.209 26.3707 153.209 29.2102V34.5229C151.866 34.7061 150.695 34.7977 149.698 34.7977C146.919 34.7977 145.545 34.0343 145.545 31.9276C145.545 29.7292 147.225 29.0575 150.278 29.0575ZM151.774 30.401C151.286 30.401 150.767 30.3399 150.064 30.3399C148.049 30.3399 146.981 30.7063 146.981 31.9276C146.981 33.0573 147.713 33.5153 149.698 33.5153C150.278 33.5153 150.95 33.4542 151.774 33.3932V30.401Z" fill="#65534E"></path>
  <path d="M156.628 34.5229H155.193V26.0043C156.628 25.7905 157.819 25.7295 158.949 25.7295C160.689 25.7295 162.552 26.2791 162.552 29.2407V34.5229H161.117V29.3934C161.117 27.7752 160.659 27.0118 159.071 27.0118C158.46 27.0118 157.392 27.0729 156.628 27.195V34.5229Z" fill="#65534E"></path>
  <path d="M171.436 34.5534C170.459 34.7061 169.238 34.7977 168.383 34.7977C165.635 34.7977 164.2 33.3626 164.2 30.3399C164.2 27.9584 165.147 25.7295 168.231 25.7295C169.055 25.7295 170.337 25.7905 171.223 26.0348L170.948 27.2561C169.482 27.0424 169.147 27.0118 168.505 27.0118C165.971 27.0118 165.666 28.6606 165.666 30.1872C165.666 32.6604 166.368 33.4848 168.689 33.4848C169.33 33.4848 170.185 33.3932 171.162 33.271L171.436 34.5534Z" fill="#65534E"></path>
  <path fill-rule="evenodd" clip-rule="evenodd" d="M173.574 30.92C173.788 33.0573 174.918 33.5153 176.536 33.5153C177.788 33.5153 178.551 33.3932 179.528 33.21L179.834 34.4923C178.979 34.645 177.635 34.7977 176.444 34.7977C173.452 34.7977 172.139 33.4542 172.139 30.2483C172.139 27.6836 173.086 25.7295 176.17 25.7295C178.551 25.7295 180.2 27.0118 180.2 30.2483C180.2 30.401 180.2 30.5842 180.169 30.92H173.574ZM178.734 29.6377C178.734 27.8057 177.666 27.0118 176.17 27.0118C174.826 27.0118 173.574 27.8057 173.574 29.6377H178.734Z" fill="#65534E"></path>
</svg>
