<svg width="120" height="60" viewBox="0 0 120 60" fill="none" xmlns="http://www.w3.org/2000/svg">
  <rect width="120" height="60" rx="8" fill="#F5F5F5"/>
  <path d="M30 30C30 24.4772 34.4772 20 40 20H80C85.5228 20 90 24.4772 90 30V30C90 35.5228 85.5228 40 80 40H40C34.4772 40 30 35.5228 30 30V30Z" fill="#333"/>
  <path d="M46 30C46 27.7909 47.7909 26 50 26H70C72.2091 26 74 27.7909 74 30V30C74 32.2091 72.2091 34 70 34H50C47.7909 34 46 32.2091 46 30V30Z" fill="white"/>
  <circle cx="60" cy="30" r="4" fill="#333"/>
</svg> 